<svg xmlns="http://www.w3.org/2000/svg" viewBox="0 0 800 300" width="800" height="300" role="img" aria-label="Pixels">
  <defs>
    <linearGradient id="bg" x1="0" y1="0" x2="1" y2="1">
      <stop offset="0" stop-color="#0b1220"/><stop offset="1" stop-color="#131c2f"/>
    </linearGradient>
    <linearGradient id="acc" x1="0" y1="0" x2="1" y2="0">
      <stop offset="0" stop-color="#ff851b"/><stop offset="1" stop-color="#ffb26b"/>
    </linearGradient>
    <pattern id="grid" width="40" height="40" patternUnits="userSpaceOnUse">
      <path d="M40 0H0V40" fill="none" stroke="#7c8db0" stroke-opacity=".13" stroke-width="1"/>
    </pattern>
    <radialGradient id="glow" cx=".5" cy=".1" r=".8">
      <stop offset="0" stop-color="#ff851b" stop-opacity=".22"/><stop offset="1" stop-color="#ff851b" stop-opacity="0"/>
    </radialGradient>
  </defs>
  <rect width="800" height="300" fill="url(#bg)"/>
  <rect width="800" height="300" fill="url(#grid)"/>
  <rect width="800" height="300" fill="url(#glow)"/>
  <rect x="96" y="82" width="180" height="136" rx="12" fill="#131c2f" stroke="#7c8db0" stroke-opacity=".5" stroke-width="2"/>
  <g stroke="#7c8db0" stroke-opacity=".3" stroke-width="1.5">
    <path d="M141 82 V218 M186 82 V218 M231 82 V218 M96 116 H276 M96 150 H276 M96 184 H276"/>
  </g>
  <rect x="141" y="116" width="45" height="34" fill="#ff851b" fill-opacity=".75"/>
  <rect x="186" y="150" width="45" height="34" fill="#ff851b" fill-opacity=".45"/>
  <g stroke="url(#acc)" stroke-width="4" fill="none" stroke-linecap="round" stroke-linejoin="round">
    <path d="M300 150 H360 M350 139 l12 11 -12 11"/>
  </g>
  <g fill="#131c2f" stroke="#7c8db0" stroke-opacity=".5" stroke-width="2">
    <rect x="380" y="126" width="104" height="48" rx="10"/>
  </g>
  <text x="432" y="156" text-anchor="middle" fill="#7c8db0" fill-opacity=".85" font-family="ui-monospace,Menlo,monospace" font-size="14">resize</text>
  <g stroke="url(#acc)" stroke-width="4" fill="none" stroke-linecap="round" stroke-linejoin="round">
    <path d="M500 150 H560 M550 139 l12 11 -12 11"/>
  </g>
  <rect x="580" y="106" width="124" height="88" rx="12" fill="#2a1a0c" stroke="#ff851b" stroke-width="2"/>
  <path d="M600 174 l24-28 18 20 14-12 28 20z" fill="#ffb26b" fill-opacity=".9"/>
  <circle cx="668" cy="132" r="9" fill="#ffb26b"/>
</svg>
